<svg width="47" height="47" viewBox="0 0 47 47" fill="none" xmlns="http://www.w3.org/2000/svg">
<path d="M15.248 10.8375V0H11.873V10.8375L13.5605 12.525L15.248 10.8375Z" fill="url(#paint0_radial_730_310)"/>
<path d="M16.2637 15.1875H30.7762L32.4637 13.5L30.7762 11.8125H16.2637L14.5762 13.5L16.2637 15.1875Z" fill="url(#paint1_radial_730_310)"/>
<path d="M35.1621 10.8375V0H31.7871V10.8375L33.4746 12.525L35.1621 10.8375Z" fill="url(#paint2_radial_730_310)"/>
<path d="M10.898 11.8125H0.0605469V15.1875H10.898L12.5855 13.5L10.898 11.8125Z" fill="url(#paint3_radial_730_310)"/>
<path d="M11.873 36.0781V46.8781H15.248V36.0781L13.5605 34.3906L11.873 36.0781Z" fill="url(#paint4_radial_730_310)"/>
<path d="M36.1387 35.0938H46.9386V31.7188H36.1387L34.4512 33.4062L36.1387 35.0938Z" fill="url(#paint5_radial_730_310)"/>
<path d="M31.7871 16.2031V30.7156L33.4746 32.4031L35.1621 30.7156V16.2031L33.4746 14.5156L31.7871 16.2031Z" fill="url(#paint6_radial_730_310)"/>
<path d="M46.9386 11.8125H36.1387L34.4512 13.5L36.1387 15.1875H46.9386V11.8125Z" fill="url(#paint7_radial_730_310)"/>
<path d="M10.898 31.7188H0.0605469V35.0938H10.898L12.5855 33.4062L10.898 31.7188Z" fill="url(#paint8_radial_730_310)"/>
<path d="M15.248 30.7156V16.2031L13.5605 14.5156L11.873 16.2031V30.7156L13.5605 32.4031L15.248 30.7156Z" fill="url(#paint9_radial_730_310)"/>
<path d="M30.7762 31.7188H16.2637L14.5762 33.4062L16.2637 35.0938H30.7762L32.4637 33.4062L30.7762 31.7188Z" fill="url(#paint10_radial_730_310)"/>
<path d="M31.7871 36.0781V46.8781H35.1621V36.0781L33.4746 34.3906L31.7871 36.0781Z" fill="url(#paint11_radial_730_310)"/>
<defs>
<radialGradient id="paint0_radial_730_310" cx="0" cy="0" r="1" gradientUnits="userSpaceOnUse" gradientTransform="translate(13.5605 6.26249) rotate(90) scale(6.26249 1.68749)">
<stop stop-color="white"/>
<stop offset="1" stop-color="white" stop-opacity="0"/>
</radialGradient>
<radialGradient id="paint1_radial_730_310" cx="0" cy="0" r="1" gradientUnits="userSpaceOnUse" gradientTransform="translate(23.5199 13.5) rotate(90) scale(1.6875 8.94374)">
<stop stop-color="white"/>
<stop offset="1" stop-color="white" stop-opacity="0"/>
</radialGradient>
<radialGradient id="paint2_radial_730_310" cx="0" cy="0" r="1" gradientUnits="userSpaceOnUse" gradientTransform="translate(33.4746 6.26249) rotate(90) scale(6.26249 1.6875)">
<stop stop-color="white"/>
<stop offset="1" stop-color="white" stop-opacity="0"/>
</radialGradient>
<radialGradient id="paint3_radial_730_310" cx="0" cy="0" r="1" gradientUnits="userSpaceOnUse" gradientTransform="translate(6.32304 13.5) rotate(90) scale(1.6875 6.26249)">
<stop stop-color="white"/>
<stop offset="1" stop-color="white" stop-opacity="0"/>
</radialGradient>
<radialGradient id="paint4_radial_730_310" cx="0" cy="0" r="1" gradientUnits="userSpaceOnUse" gradientTransform="translate(13.5605 40.6344) rotate(90) scale(6.24375 1.68749)">
<stop stop-color="white"/>
<stop offset="1" stop-color="white" stop-opacity="0"/>
</radialGradient>
<radialGradient id="paint5_radial_730_310" cx="0" cy="0" r="1" gradientUnits="userSpaceOnUse" gradientTransform="translate(40.6949 33.4062) rotate(90) scale(1.6875 6.24374)">
<stop stop-color="white"/>
<stop offset="1" stop-color="white" stop-opacity="0"/>
</radialGradient>
<radialGradient id="paint6_radial_730_310" cx="0" cy="0" r="1" gradientUnits="userSpaceOnUse" gradientTransform="translate(33.4746 23.4594) rotate(90) scale(8.94374 1.6875)">
<stop stop-color="white"/>
<stop offset="1" stop-color="white" stop-opacity="0"/>
</radialGradient>
<radialGradient id="paint7_radial_730_310" cx="0" cy="0" r="1" gradientUnits="userSpaceOnUse" gradientTransform="translate(40.6949 13.5) rotate(90) scale(1.6875 6.24374)">
<stop stop-color="white"/>
<stop offset="1" stop-color="white" stop-opacity="0"/>
</radialGradient>
<radialGradient id="paint8_radial_730_310" cx="0" cy="0" r="1" gradientUnits="userSpaceOnUse" gradientTransform="translate(6.32304 33.4062) rotate(90) scale(1.6875 6.26249)">
<stop stop-color="white"/>
<stop offset="1" stop-color="white" stop-opacity="0"/>
</radialGradient>
<radialGradient id="paint9_radial_730_310" cx="0" cy="0" r="1" gradientUnits="userSpaceOnUse" gradientTransform="translate(13.5605 23.4594) rotate(90) scale(8.94374 1.68749)">
<stop stop-color="white"/>
<stop offset="1" stop-color="white" stop-opacity="0"/>
</radialGradient>
<radialGradient id="paint10_radial_730_310" cx="0" cy="0" r="1" gradientUnits="userSpaceOnUse" gradientTransform="translate(23.5199 33.4062) rotate(90) scale(1.6875 8.94374)">
<stop stop-color="white"/>
<stop offset="1" stop-color="white" stop-opacity="0"/>
</radialGradient>
<radialGradient id="paint11_radial_730_310" cx="0" cy="0" r="1" gradientUnits="userSpaceOnUse" gradientTransform="translate(33.4746 40.6344) rotate(90) scale(6.24375 1.6875)">
<stop stop-color="white"/>
<stop offset="1" stop-color="white" stop-opacity="0"/>
</radialGradient>
</defs>
</svg>
