<svg width="125" height="121" viewBox="0 0 125 121" fill="none" xmlns="http://www.w3.org/2000/svg">
<path d="M59.9998 2H45.2998C44.6998 2 44.2998 1.5 44.2998 1C44.2998 0.5 44.7998 0 45.2998 0H59.9998C60.5998 0 60.9998 0.5 60.9998 1C60.9998 1.5 60.5998 2 59.9998 2Z" fill="url(#paint0_radial_730_247)"/>
<path d="M59.9998 6.3999H34.2998C33.6998 6.3999 33.2998 5.8999 33.2998 5.3999C33.2998 4.7999 33.7998 4.3999 34.2998 4.3999H60.0998C60.6998 4.3999 61.0998 4.8999 61.0998 5.3999C60.9998 5.8999 60.5998 6.3999 59.9998 6.3999Z" fill="url(#paint1_radial_730_247)"/>
<path d="M59.9998 10.7002H26.7998C26.1998 10.7002 25.7998 10.2002 25.7998 9.7002C25.7998 9.2002 26.2998 8.7002 26.7998 8.7002H59.9998C60.5998 8.7002 60.9998 9.2002 60.9998 9.7002C60.9998 10.2002 60.5998 10.7002 59.9998 10.7002Z" fill="url(#paint2_radial_730_247)"/>
<path d="M59.9996 15.1001H21.5996C20.9996 15.1001 20.5996 14.6001 20.5996 14.1001C20.5996 13.5001 21.0996 13.1001 21.5996 13.1001H60.0996C60.6996 13.1001 61.0996 13.6001 61.0996 14.1001C60.9996 14.7001 60.5996 15.1001 59.9996 15.1001Z" fill="url(#paint3_radial_730_247)"/>
<path d="M60 19.5H17C16.4 19.5 16 19 16 18.5C16 18 16.5 17.5 17 17.5H60C60.6 17.5 61 18 61 18.5C61 19 60.6 19.5 60 19.5Z" fill="url(#paint4_radial_730_247)"/>
<path d="M60.0002 23.8999H13.2002C12.6002 23.8999 12.2002 23.3999 12.2002 22.8999C12.2002 22.2999 12.7002 21.8999 13.2002 21.8999H60.1002C60.7002 21.8999 61.1002 22.3999 61.1002 22.8999C61.0002 23.3999 60.6002 23.8999 60.0002 23.8999Z" fill="url(#paint5_radial_730_247)"/>
<path d="M60.0004 28.2002H10.4004C9.80039 28.2002 9.40039 27.7002 9.40039 27.2002C9.40039 26.6002 9.90039 26.2002 10.4004 26.2002H60.0004C60.6004 26.2002 61.0004 26.7002 61.0004 27.2002C61.0004 27.8002 60.6004 28.2002 60.0004 28.2002Z" fill="url(#paint6_radial_730_247)"/>
<path d="M60.0004 32.6001H7.90039C7.30039 32.6001 6.90039 32.1001 6.90039 31.6001C6.90039 31.0001 7.40039 30.6001 7.90039 30.6001H60.0004C60.6004 30.6001 61.0004 31.1001 61.0004 31.6001C61.0004 32.2001 60.6004 32.6001 60.0004 32.6001Z" fill="url(#paint7_radial_730_247)"/>
<path d="M60.0002 37H5.7002C5.1002 37 4.7002 36.5 4.7002 36C4.7002 35.5 5.2002 35 5.7002 35H60.1002C60.7002 35 61.1002 35.5 61.1002 36C61.1002 36.5 60.6002 37 60.0002 37Z" fill="url(#paint8_radial_730_247)"/>
<path d="M59.9998 41.3999H3.7998C3.1998 41.3999 2.7998 40.8999 2.7998 40.3999C2.7998 39.7999 3.2998 39.3999 3.7998 39.3999H59.9998C60.5998 39.3999 60.9998 39.8999 60.9998 40.3999C60.9998 40.8999 60.5998 41.3999 59.9998 41.3999Z" fill="url(#paint9_radial_730_247)"/>
<path d="M60 45.7002H2.5C1.9 45.7002 1.5 45.2002 1.5 44.7002C1.5 44.2002 2 43.7002 2.5 43.7002H60C60.6 43.7002 61 44.2002 61 44.7002C61 45.2002 60.6 45.7002 60 45.7002Z" fill="url(#paint10_radial_730_247)"/>
<path d="M60 50.1001H2.5C1.9 50.1001 1.5 49.6001 1.5 49.1001C1.5 48.6001 2 48.1001 2.5 48.1001H60C60.6 48.1001 61 48.6001 61 49.1001C61 49.6001 60.6 50.1001 60 50.1001Z" fill="url(#paint11_radial_730_247)"/>
<path d="M60 54.5H1C0.4 54.5 0 54 0 53.5C0 52.9 0.5 52.5 1 52.5H60.1C60.7 52.5 61.1 53 61.1 53.5C61 54 60.6 54.5 60 54.5Z" fill="url(#paint12_radial_730_247)"/>
<path d="M60 58.8999H1C0.4 58.8999 0 58.3999 0 57.8999C0 57.3999 0.5 56.8999 1 56.8999H60.1C60.7 56.8999 61.1 57.3999 61.1 57.8999C61.1 58.3999 60.6 58.8999 60 58.8999Z" fill="url(#paint13_radial_730_247)"/>
<path d="M60 63.2002H1C0.4 63.2002 0 62.7002 0 62.2002C0 61.7002 0.5 61.2002 1 61.2002H60.1C60.7 61.2002 61.1 61.7002 61.1 62.2002C61.1 62.7002 60.6 63.2002 60 63.2002Z" fill="url(#paint14_radial_730_247)"/>
<path d="M60 67.6001H1C0.4 67.6001 0 67.1001 0 66.6001C0 66.0001 0.5 65.6001 1 65.6001H60.1C60.7 65.6001 61.1 66.1001 61.1 66.6001C61 67.2001 60.6 67.6001 60 67.6001Z" fill="url(#paint15_radial_730_247)"/>
<path d="M60 72H2.5C1.9 72 1.5 71.5 1.5 71C1.5 70.5 2 70 2.5 70H60C60.6 70 61 70.5 61 71C61 71.5 60.6 72 60 72Z" fill="url(#paint16_radial_730_247)"/>
<path d="M60 76.3999H2.5C1.9 76.3999 1.5 75.8999 1.5 75.3999C1.5 74.8999 2 74.3999 2.5 74.3999H60C60.6 74.3999 61 74.8999 61 75.3999C61 75.8999 60.6 76.3999 60 76.3999Z" fill="url(#paint17_radial_730_247)"/>
<path d="M59.9998 80.7002H3.7998C3.1998 80.7002 2.7998 80.2002 2.7998 79.7002C2.7998 79.1002 3.2998 78.7002 3.7998 78.7002H59.9998C60.5998 78.7002 60.9998 79.2002 60.9998 79.7002C60.9998 80.3002 60.5998 80.7002 59.9998 80.7002Z" fill="url(#paint18_radial_730_247)"/>
<path d="M60.0002 85.1001H5.7002C5.1002 85.1001 4.7002 84.6001 4.7002 84.1001C4.7002 83.6001 5.2002 83.1001 5.7002 83.1001H60.1002C60.7002 83.1001 61.1002 83.6001 61.1002 84.1001C61.1002 84.6001 60.6002 85.1001 60.0002 85.1001Z" fill="url(#paint19_radial_730_247)"/>
<path d="M60.0004 89.5H7.90039C7.30039 89.5 6.90039 89 6.90039 88.5C6.90039 87.9 7.40039 87.5 7.90039 87.5H60.0004C60.6004 87.5 61.0004 88 61.0004 88.5C61.0004 89 60.6004 89.5 60.0004 89.5Z" fill="url(#paint20_radial_730_247)"/>
<path d="M60.0004 93.8999H10.4004C9.80039 93.8999 9.40039 93.3999 9.40039 92.8999C9.40039 92.2999 9.90039 91.8999 10.4004 91.8999H60.0004C60.6004 91.8999 61.0004 92.3999 61.0004 92.8999C61.0004 93.3999 60.6004 93.8999 60.0004 93.8999Z" fill="url(#paint21_radial_730_247)"/>
<path d="M60.0002 98.2998H13.2002C12.6002 98.2998 12.2002 97.7998 12.2002 97.2998C12.2002 96.6998 12.7002 96.2998 13.2002 96.2998H60.1002C60.7002 96.2998 61.1002 96.7998 61.1002 97.2998C61.0002 97.7998 60.6002 98.2998 60.0002 98.2998Z" fill="url(#paint22_radial_730_247)"/>
<path d="M60 102.6H17C16.4 102.6 16 102.1 16 101.6C16 101 16.5 100.6 17 100.6H60C60.6 100.6 61 101.1 61 101.6C61 102.2 60.6 102.6 60 102.6Z" fill="url(#paint23_radial_730_247)"/>
<path d="M59.9996 107H21.5996C20.9996 107 20.5996 106.5 20.5996 106C20.5996 105.4 21.0996 105 21.5996 105H60.0996C60.6996 105 61.0996 105.5 61.0996 106C60.9996 106.6 60.5996 107 59.9996 107Z" fill="url(#paint24_radial_730_247)"/>
<path d="M59.9998 111.4H26.7998C26.1998 111.4 25.7998 110.9 25.7998 110.4C25.7998 109.9 26.2998 109.4 26.7998 109.4H59.9998C60.5998 109.4 60.9998 109.9 60.9998 110.4C60.9998 110.9 60.5998 111.4 59.9998 111.4Z" fill="url(#paint25_radial_730_247)"/>
<path d="M59.9998 115.8H34.2998C33.6998 115.8 33.2998 115.3 33.2998 114.8C33.2998 114.2 33.7998 113.8 34.2998 113.8H60.0998C60.6998 113.8 61.0998 114.3 61.0998 114.8C60.9998 115.3 60.5998 115.8 59.9998 115.8Z" fill="url(#paint26_radial_730_247)"/>
<path d="M59.9998 120.1H45.2998C44.6998 120.1 44.2998 119.6 44.2998 119.1C44.2998 118.5 44.7998 118.1 45.2998 118.1H59.9998C60.5998 118.1 60.9998 118.6 60.9998 119.1C60.9998 119.7 60.5998 120.1 59.9998 120.1Z" fill="url(#paint27_radial_730_247)"/>
<path d="M79.6004 120.1H64.9004C64.3004 120.1 63.9004 119.6 63.9004 119.1C63.9004 118.5 64.4004 118.1 64.9004 118.1H79.6004C80.2004 118.1 80.6004 118.6 80.6004 119.1C80.6004 119.7 80.1004 120.1 79.6004 120.1Z" fill="url(#paint28_radial_730_247)"/>
<path d="M90.6004 115.8H64.9004C64.3004 115.8 63.9004 115.3 63.9004 114.8C63.9004 114.2 64.4004 113.8 64.9004 113.8H90.7004C91.3004 113.8 91.7004 114.3 91.7004 114.8C91.6004 115.3 91.2004 115.8 90.6004 115.8Z" fill="url(#paint29_radial_730_247)"/>
<path d="M98.1004 111.4H64.9004C64.3004 111.4 63.9004 110.9 63.9004 110.4C63.9004 109.9 64.4004 109.4 64.9004 109.4H98.1004C98.7004 109.4 99.1004 109.9 99.1004 110.4C99.1004 110.9 98.7004 111.4 98.1004 111.4Z" fill="url(#paint30_radial_730_247)"/>
<path d="M103.3 107H64.9004C64.3004 107 63.9004 106.5 63.9004 106C63.9004 105.4 64.4004 105 64.9004 105H103.4C104 105 104.4 105.5 104.4 106C104.3 106.6 103.9 107 103.3 107Z" fill="url(#paint31_radial_730_247)"/>
<path d="M107.9 102.6H64.9004C64.3004 102.6 63.9004 102.1 63.9004 101.6C63.9004 101 64.4004 100.6 64.9004 100.6H107.9C108.5 100.6 108.9 101.1 108.9 101.6C108.9 102.2 108.4 102.6 107.9 102.6Z" fill="url(#paint32_radial_730_247)"/>
<path d="M111.7 98.2998H64.9004C64.3004 98.2998 63.9004 97.7998 63.9004 97.2998C63.9004 96.6998 64.4004 96.2998 64.9004 96.2998H111.8C112.4 96.2998 112.8 96.7998 112.8 97.2998C112.7 97.7998 112.3 98.2998 111.7 98.2998Z" fill="url(#paint33_radial_730_247)"/>
<path d="M114.5 93.8999H64.9004C64.3004 93.8999 63.9004 93.3999 63.9004 92.8999C63.9004 92.2999 64.4004 91.8999 64.9004 91.8999H114.5C115.1 91.8999 115.5 92.3999 115.5 92.8999C115.5 93.3999 115 93.8999 114.5 93.8999Z" fill="url(#paint34_radial_730_247)"/>
<path d="M117 89.5H64.9004C64.3004 89.5 63.9004 89 63.9004 88.5C63.9004 87.9 64.4004 87.5 64.9004 87.5H117C117.6 87.5 118 88 118 88.5C118 89 117.5 89.5 117 89.5Z" fill="url(#paint35_radial_730_247)"/>
<path d="M119.2 85.1001H64.9004C64.3004 85.1001 63.9004 84.6001 63.9004 84.1001C63.9004 83.6001 64.4004 83.1001 64.9004 83.1001H119.2C119.8 83.1001 120.2 83.6001 120.2 84.1001C120.2 84.6001 119.8 85.1001 119.2 85.1001Z" fill="url(#paint36_radial_730_247)"/>
<path d="M121.1 80.7002H64.9004C64.3004 80.7002 63.9004 80.2002 63.9004 79.7002C63.9004 79.1002 64.4004 78.7002 64.9004 78.7002H121.1C121.7 78.7002 122.1 79.2002 122.1 79.7002C122.1 80.3002 121.6 80.7002 121.1 80.7002Z" fill="url(#paint37_radial_730_247)"/>
<path d="M122.4 76.3999H64.9004C64.3004 76.3999 63.9004 75.8999 63.9004 75.3999C63.9004 74.8999 64.4004 74.3999 64.9004 74.3999H122.4C123 74.3999 123.4 74.8999 123.4 75.3999C123.4 75.8999 123 76.3999 122.4 76.3999Z" fill="url(#paint38_radial_730_247)"/>
<path d="M122.4 72H64.9004C64.3004 72 63.9004 71.5 63.9004 71C63.9004 70.5 64.4004 70 64.9004 70H122.4C123 70 123.4 70.5 123.4 71C123.4 71.5 123 72 122.4 72Z" fill="url(#paint39_radial_730_247)"/>
<path d="M123.9 67.6001H64.9004C64.3004 67.6001 63.9004 67.1001 63.9004 66.6001C63.9004 66.0001 64.4004 65.6001 64.9004 65.6001H124C124.6 65.6001 125 66.1001 125 66.6001C125 67.2001 124.5 67.6001 123.9 67.6001Z" fill="url(#paint40_radial_730_247)"/>
<path d="M123.9 63.2002H64.9004C64.3004 63.2002 63.9004 62.7002 63.9004 62.2002C63.9004 61.7002 64.4004 61.2002 64.9004 61.2002H124C124.6 61.2002 125 61.7002 125 62.2002C125 62.7002 124.5 63.2002 123.9 63.2002Z" fill="url(#paint41_radial_730_247)"/>
<path d="M123.9 58.8999H64.9004C64.3004 58.8999 63.9004 58.3999 63.9004 57.8999C63.9004 57.3999 64.4004 56.8999 64.9004 56.8999H124C124.6 56.8999 125 57.3999 125 57.8999C125 58.3999 124.5 58.8999 123.9 58.8999Z" fill="url(#paint42_radial_730_247)"/>
<path d="M123.9 54.5H64.9004C64.3004 54.5 63.9004 54 63.9004 53.5C63.9004 53 64.4004 52.5 64.9004 52.5H124C124.6 52.5 125 53 125 53.5C125 54 124.5 54.5 123.9 54.5Z" fill="url(#paint43_radial_730_247)"/>
<path d="M122.4 50.1001H64.9004C64.3004 50.1001 63.9004 49.6001 63.9004 49.1001C63.9004 48.6001 64.4004 48.1001 64.9004 48.1001H122.4C123 48.1001 123.4 48.6001 123.4 49.1001C123.4 49.6001 123 50.1001 122.4 50.1001Z" fill="url(#paint44_radial_730_247)"/>
<path d="M122.4 45.7002H64.9004C64.3004 45.7002 63.9004 45.2002 63.9004 44.7002C63.9004 44.2002 64.4004 43.7002 64.9004 43.7002H122.4C123 43.7002 123.4 44.2002 123.4 44.7002C123.4 45.2002 123 45.7002 122.4 45.7002Z" fill="url(#paint45_radial_730_247)"/>
<path d="M121.1 41.3999H64.9004C64.3004 41.3999 63.9004 40.8999 63.9004 40.3999C63.9004 39.7999 64.4004 39.3999 64.9004 39.3999H121.1C121.7 39.3999 122.1 39.8999 122.1 40.3999C122.1 40.8999 121.6 41.3999 121.1 41.3999Z" fill="url(#paint46_radial_730_247)"/>
<path d="M119.2 37H64.9004C64.3004 37 63.9004 36.5 63.9004 36C63.9004 35.5 64.4004 35 64.9004 35H119.2C119.8 35 120.2 35.5 120.2 36C120.2 36.5 119.8 37 119.2 37Z" fill="url(#paint47_radial_730_247)"/>
<path d="M117 32.6001H64.9004C64.3004 32.6001 63.9004 32.1001 63.9004 31.6001C63.9004 31.0001 64.4004 30.6001 64.9004 30.6001H117C117.6 30.6001 118 31.1001 118 31.6001C118 32.2001 117.5 32.6001 117 32.6001Z" fill="url(#paint48_radial_730_247)"/>
<path d="M114.5 28.2002H64.9004C64.3004 28.2002 63.9004 27.7002 63.9004 27.2002C63.9004 26.6002 64.4004 26.2002 64.9004 26.2002H114.5C115.1 26.2002 115.5 26.7002 115.5 27.2002C115.5 27.8002 115 28.2002 114.5 28.2002Z" fill="url(#paint49_radial_730_247)"/>
<path d="M111.7 23.8999H64.9004C64.3004 23.8999 63.9004 23.3999 63.9004 22.8999C63.9004 22.2999 64.4004 21.8999 64.9004 21.8999H111.8C112.4 21.8999 112.8 22.3999 112.8 22.8999C112.7 23.3999 112.3 23.8999 111.7 23.8999Z" fill="url(#paint50_radial_730_247)"/>
<path d="M107.9 19.5H64.9004C64.3004 19.5 63.9004 19 63.9004 18.5C63.9004 18 64.4004 17.5 64.9004 17.5H107.9C108.5 17.5 108.9 18 108.9 18.5C108.9 19 108.4 19.5 107.9 19.5Z" fill="url(#paint51_radial_730_247)"/>
<path d="M103.3 15.1001H64.9004C64.3004 15.1001 63.9004 14.6001 63.9004 14.1001C63.9004 13.5001 64.4004 13.1001 64.9004 13.1001H103.4C104 13.1001 104.4 13.6001 104.4 14.1001C104.3 14.7001 103.9 15.1001 103.3 15.1001Z" fill="url(#paint52_radial_730_247)"/>
<path d="M98.1004 10.7002H64.9004C64.3004 10.7002 63.9004 10.2002 63.9004 9.7002C63.9004 9.2002 64.4004 8.7002 64.9004 8.7002H98.1004C98.7004 8.7002 99.1004 9.2002 99.1004 9.7002C99.1004 10.2002 98.7004 10.7002 98.1004 10.7002Z" fill="url(#paint53_radial_730_247)"/>
<path d="M90.6004 6.3999H64.9004C64.3004 6.3999 63.9004 5.8999 63.9004 5.3999C63.9004 4.7999 64.4004 4.3999 64.9004 4.3999H90.7004C91.3004 4.3999 91.7004 4.8999 91.7004 5.3999C91.6004 5.8999 91.2004 6.3999 90.6004 6.3999Z" fill="url(#paint54_radial_730_247)"/>
<path d="M79.6004 2H64.9004C64.3004 2 63.9004 1.5 63.9004 1C63.9004 0.5 64.4004 0 64.9004 0H79.6004C80.2004 0 80.6004 0.5 80.6004 1C80.6004 1.5 80.1004 2 79.6004 2Z" fill="url(#paint55_radial_730_247)"/>
<defs>
<radialGradient id="paint0_radial_730_247" cx="0" cy="0" r="1" gradientUnits="userSpaceOnUse" gradientTransform="translate(52.0486 1.01582) rotate(0.0780515) scale(12.2244 0.773428)">
<stop stop-color="white"/>
<stop offset="1" stop-color="white" stop-opacity="0"/>
</radialGradient>
<radialGradient id="paint1_radial_730_247" cx="0" cy="0" r="1" gradientUnits="userSpaceOnUse" gradientTransform="translate(46.199 5.41572) rotate(0.0468871) scale(20.3496 0.773429)">
<stop stop-color="white"/>
<stop offset="1" stop-color="white" stop-opacity="0"/>
</radialGradient>
<radialGradient id="paint2_radial_730_247" cx="0" cy="0" r="1" gradientUnits="userSpaceOnUse" gradientTransform="translate(42.1326 9.71602) rotate(0.0370301) scale(25.7664 0.773429)">
<stop stop-color="white"/>
<stop offset="1" stop-color="white" stop-opacity="0"/>
</radialGradient>
<radialGradient id="paint3_radial_730_247" cx="0" cy="0" r="1" gradientUnits="userSpaceOnUse" gradientTransform="translate(39.3916 14.1159) rotate(0.0321842) scale(29.646 0.773429)">
<stop stop-color="white"/>
<stop offset="1" stop-color="white" stop-opacity="0"/>
</radialGradient>
<radialGradient id="paint4_radial_730_247" cx="0" cy="0" r="1" gradientUnits="userSpaceOnUse" gradientTransform="translate(36.88 18.5158) rotate(0.0289658) scale(32.94 0.773429)">
<stop stop-color="white"/>
<stop offset="1" stop-color="white" stop-opacity="0"/>
</radialGradient>
<radialGradient id="paint5_radial_730_247" cx="0" cy="0" r="1" gradientUnits="userSpaceOnUse" gradientTransform="translate(34.8898 22.9157) rotate(0.0266556) scale(35.7948 0.773429)">
<stop stop-color="white"/>
<stop offset="1" stop-color="white" stop-opacity="0"/>
</radialGradient>
<radialGradient id="paint6_radial_730_247" cx="0" cy="0" r="1" gradientUnits="userSpaceOnUse" gradientTransform="translate(33.3428 27.216) rotate(0.0252609) scale(37.7712 0.773429)">
<stop stop-color="white"/>
<stop offset="1" stop-color="white" stop-opacity="0"/>
</radialGradient>
<radialGradient id="paint7_radial_730_247" cx="0" cy="0" r="1" gradientUnits="userSpaceOnUse" gradientTransform="translate(32.0028 31.6159) rotate(0.0240936) scale(39.6012 0.773429)">
<stop stop-color="white"/>
<stop offset="1" stop-color="white" stop-opacity="0"/>
</radialGradient>
<radialGradient id="paint8_radial_730_247" cx="0" cy="0" r="1" gradientUnits="userSpaceOnUse" gradientTransform="translate(30.8698 36.0158) rotate(0.023111) scale(41.2848 0.773429)">
<stop stop-color="white"/>
<stop offset="1" stop-color="white" stop-opacity="0"/>
</radialGradient>
<radialGradient id="paint9_radial_730_247" cx="0" cy="0" r="1" gradientUnits="userSpaceOnUse" gradientTransform="translate(29.8046 40.4157) rotate(0.0223962) scale(42.6024 0.773429)">
<stop stop-color="white"/>
<stop offset="1" stop-color="white" stop-opacity="0"/>
</radialGradient>
<radialGradient id="paint10_radial_730_247" cx="0" cy="0" r="1" gradientUnits="userSpaceOnUse" gradientTransform="translate(29.108 44.716) rotate(0.0219069) scale(43.554 0.773429)">
<stop stop-color="white"/>
<stop offset="1" stop-color="white" stop-opacity="0"/>
</radialGradient>
<radialGradient id="paint11_radial_730_247" cx="0" cy="0" r="1" gradientUnits="userSpaceOnUse" gradientTransform="translate(29.108 49.1159) rotate(0.0219069) scale(43.554 0.773429)">
<stop stop-color="white"/>
<stop offset="1" stop-color="white" stop-opacity="0"/>
</radialGradient>
<radialGradient id="paint12_radial_730_247" cx="0" cy="0" r="1" gradientUnits="userSpaceOnUse" gradientTransform="translate(28.3504 53.5158) rotate(0.0213332) scale(44.7252 0.773429)">
<stop stop-color="white"/>
<stop offset="1" stop-color="white" stop-opacity="0"/>
</radialGradient>
<radialGradient id="paint13_radial_730_247" cx="0" cy="0" r="1" gradientUnits="userSpaceOnUse" gradientTransform="translate(28.3504 57.9157) rotate(0.0213332) scale(44.7252 0.773429)">
<stop stop-color="white"/>
<stop offset="1" stop-color="white" stop-opacity="0"/>
</radialGradient>
<radialGradient id="paint14_radial_730_247" cx="0" cy="0" r="1" gradientUnits="userSpaceOnUse" gradientTransform="translate(28.3504 62.216) rotate(0.0213332) scale(44.7252 0.773429)">
<stop stop-color="white"/>
<stop offset="1" stop-color="white" stop-opacity="0"/>
</radialGradient>
<radialGradient id="paint15_radial_730_247" cx="0" cy="0" r="1" gradientUnits="userSpaceOnUse" gradientTransform="translate(28.3504 66.6159) rotate(0.0213332) scale(44.7252 0.773429)">
<stop stop-color="white"/>
<stop offset="1" stop-color="white" stop-opacity="0"/>
</radialGradient>
<radialGradient id="paint16_radial_730_247" cx="0" cy="0" r="1" gradientUnits="userSpaceOnUse" gradientTransform="translate(29.108 71.0158) rotate(0.0219069) scale(43.554 0.773429)">
<stop stop-color="white"/>
<stop offset="1" stop-color="white" stop-opacity="0"/>
</radialGradient>
<radialGradient id="paint17_radial_730_247" cx="0" cy="0" r="1" gradientUnits="userSpaceOnUse" gradientTransform="translate(29.108 75.4157) rotate(0.0219069) scale(43.554 0.773429)">
<stop stop-color="white"/>
<stop offset="1" stop-color="white" stop-opacity="0"/>
</radialGradient>
<radialGradient id="paint18_radial_730_247" cx="0" cy="0" r="1" gradientUnits="userSpaceOnUse" gradientTransform="translate(29.8046 79.716) rotate(0.0223962) scale(42.6024 0.773429)">
<stop stop-color="white"/>
<stop offset="1" stop-color="white" stop-opacity="0"/>
</radialGradient>
<radialGradient id="paint19_radial_730_247" cx="0" cy="0" r="1" gradientUnits="userSpaceOnUse" gradientTransform="translate(30.8698 84.1159) rotate(0.023111) scale(41.2848 0.773429)">
<stop stop-color="white"/>
<stop offset="1" stop-color="white" stop-opacity="0"/>
</radialGradient>
<radialGradient id="paint20_radial_730_247" cx="0" cy="0" r="1" gradientUnits="userSpaceOnUse" gradientTransform="translate(32.0028 88.5158) rotate(0.0240936) scale(39.6012 0.773429)">
<stop stop-color="white"/>
<stop offset="1" stop-color="white" stop-opacity="0"/>
</radialGradient>
<radialGradient id="paint21_radial_730_247" cx="0" cy="0" r="1" gradientUnits="userSpaceOnUse" gradientTransform="translate(33.3428 92.9157) rotate(0.025261) scale(37.7712 0.773432)">
<stop stop-color="white"/>
<stop offset="1" stop-color="white" stop-opacity="0"/>
</radialGradient>
<radialGradient id="paint22_radial_730_247" cx="0" cy="0" r="1" gradientUnits="userSpaceOnUse" gradientTransform="translate(34.8898 97.3156) rotate(0.0266556) scale(35.7948 0.773429)">
<stop stop-color="white"/>
<stop offset="1" stop-color="white" stop-opacity="0"/>
</radialGradient>
<radialGradient id="paint23_radial_730_247" cx="0" cy="0" r="1" gradientUnits="userSpaceOnUse" gradientTransform="translate(36.88 101.616) rotate(0.0289658) scale(32.94 0.773429)">
<stop stop-color="white"/>
<stop offset="1" stop-color="white" stop-opacity="0"/>
</radialGradient>
<radialGradient id="paint24_radial_730_247" cx="0" cy="0" r="1" gradientUnits="userSpaceOnUse" gradientTransform="translate(39.3916 106.016) rotate(0.0321842) scale(29.646 0.773429)">
<stop stop-color="white"/>
<stop offset="1" stop-color="white" stop-opacity="0"/>
</radialGradient>
<radialGradient id="paint25_radial_730_247" cx="0" cy="0" r="1" gradientUnits="userSpaceOnUse" gradientTransform="translate(42.1326 110.416) rotate(0.0370301) scale(25.7664 0.773429)">
<stop stop-color="white"/>
<stop offset="1" stop-color="white" stop-opacity="0"/>
</radialGradient>
<radialGradient id="paint26_radial_730_247" cx="0" cy="0" r="1" gradientUnits="userSpaceOnUse" gradientTransform="translate(46.199 114.816) rotate(0.0468871) scale(20.3496 0.773429)">
<stop stop-color="white"/>
<stop offset="1" stop-color="white" stop-opacity="0"/>
</radialGradient>
<radialGradient id="paint27_radial_730_247" cx="0" cy="0" r="1" gradientUnits="userSpaceOnUse" gradientTransform="translate(52.0486 119.116) rotate(0.0780515) scale(12.2244 0.773428)">
<stop stop-color="white"/>
<stop offset="1" stop-color="white" stop-opacity="0"/>
</radialGradient>
<radialGradient id="paint28_radial_730_247" cx="0" cy="0" r="1" gradientUnits="userSpaceOnUse" gradientTransform="translate(71.6492 119.116) rotate(0.0780515) scale(12.2244 0.773428)">
<stop stop-color="white"/>
<stop offset="1" stop-color="white" stop-opacity="0"/>
</radialGradient>
<radialGradient id="paint29_radial_730_247" cx="0" cy="0" r="1" gradientUnits="userSpaceOnUse" gradientTransform="translate(76.7996 114.816) rotate(0.0468871) scale(20.3496 0.773429)">
<stop stop-color="white"/>
<stop offset="1" stop-color="white" stop-opacity="0"/>
</radialGradient>
<radialGradient id="paint30_radial_730_247" cx="0" cy="0" r="1" gradientUnits="userSpaceOnUse" gradientTransform="translate(80.2332 110.416) rotate(0.0370301) scale(25.7664 0.773429)">
<stop stop-color="white"/>
<stop offset="1" stop-color="white" stop-opacity="0"/>
</radialGradient>
<radialGradient id="paint31_radial_730_247" cx="0" cy="0" r="1" gradientUnits="userSpaceOnUse" gradientTransform="translate(82.6924 106.016) rotate(0.0321842) scale(29.646 0.773429)">
<stop stop-color="white"/>
<stop offset="1" stop-color="white" stop-opacity="0"/>
</radialGradient>
<radialGradient id="paint32_radial_730_247" cx="0" cy="0" r="1" gradientUnits="userSpaceOnUse" gradientTransform="translate(84.7804 101.616) rotate(0.0289658) scale(32.94 0.773429)">
<stop stop-color="white"/>
<stop offset="1" stop-color="white" stop-opacity="0"/>
</radialGradient>
<radialGradient id="paint33_radial_730_247" cx="0" cy="0" r="1" gradientUnits="userSpaceOnUse" gradientTransform="translate(86.59 97.3156) rotate(0.0266556) scale(35.7948 0.773429)">
<stop stop-color="white"/>
<stop offset="1" stop-color="white" stop-opacity="0"/>
</radialGradient>
<radialGradient id="paint34_radial_730_247" cx="0" cy="0" r="1" gradientUnits="userSpaceOnUse" gradientTransform="translate(87.8428 92.9157) rotate(0.025261) scale(37.7712 0.773432)">
<stop stop-color="white"/>
<stop offset="1" stop-color="white" stop-opacity="0"/>
</radialGradient>
<radialGradient id="paint35_radial_730_247" cx="0" cy="0" r="1" gradientUnits="userSpaceOnUse" gradientTransform="translate(89.0028 88.5158) rotate(0.0240935) scale(39.6012 0.773429)">
<stop stop-color="white"/>
<stop offset="1" stop-color="white" stop-opacity="0"/>
</radialGradient>
<radialGradient id="paint36_radial_730_247" cx="0" cy="0" r="1" gradientUnits="userSpaceOnUse" gradientTransform="translate(90.0236 84.1159) rotate(0.0231521) scale(41.2116 0.773429)">
<stop stop-color="white"/>
<stop offset="1" stop-color="white" stop-opacity="0"/>
</radialGradient>
<radialGradient id="paint37_radial_730_247" cx="0" cy="0" r="1" gradientUnits="userSpaceOnUse" gradientTransform="translate(90.9052 79.716) rotate(0.0223962) scale(42.6024 0.773429)">
<stop stop-color="white"/>
<stop offset="1" stop-color="white" stop-opacity="0"/>
</radialGradient>
<radialGradient id="paint38_radial_730_247" cx="0" cy="0" r="1" gradientUnits="userSpaceOnUse" gradientTransform="translate(91.5084 75.4157) rotate(0.0219069) scale(43.554 0.773429)">
<stop stop-color="white"/>
<stop offset="1" stop-color="white" stop-opacity="0"/>
</radialGradient>
<radialGradient id="paint39_radial_730_247" cx="0" cy="0" r="1" gradientUnits="userSpaceOnUse" gradientTransform="translate(91.5084 71.0158) rotate(0.0219069) scale(43.554 0.773429)">
<stop stop-color="white"/>
<stop offset="1" stop-color="white" stop-opacity="0"/>
</radialGradient>
<radialGradient id="paint40_radial_730_247" cx="0" cy="0" r="1" gradientUnits="userSpaceOnUse" gradientTransform="translate(92.2508 66.6159) rotate(0.0213332) scale(44.7252 0.773429)">
<stop stop-color="white"/>
<stop offset="1" stop-color="white" stop-opacity="0"/>
</radialGradient>
<radialGradient id="paint41_radial_730_247" cx="0" cy="0" r="1" gradientUnits="userSpaceOnUse" gradientTransform="translate(92.2508 62.216) rotate(0.0213332) scale(44.7252 0.773429)">
<stop stop-color="white"/>
<stop offset="1" stop-color="white" stop-opacity="0"/>
</radialGradient>
<radialGradient id="paint42_radial_730_247" cx="0" cy="0" r="1" gradientUnits="userSpaceOnUse" gradientTransform="translate(92.2508 57.9157) rotate(0.0213332) scale(44.7252 0.773429)">
<stop stop-color="white"/>
<stop offset="1" stop-color="white" stop-opacity="0"/>
</radialGradient>
<radialGradient id="paint43_radial_730_247" cx="0" cy="0" r="1" gradientUnits="userSpaceOnUse" gradientTransform="translate(92.2508 53.5158) rotate(0.0213332) scale(44.7252 0.773429)">
<stop stop-color="white"/>
<stop offset="1" stop-color="white" stop-opacity="0"/>
</radialGradient>
<radialGradient id="paint44_radial_730_247" cx="0" cy="0" r="1" gradientUnits="userSpaceOnUse" gradientTransform="translate(91.5084 49.1159) rotate(0.0219069) scale(43.554 0.773429)">
<stop stop-color="white"/>
<stop offset="1" stop-color="white" stop-opacity="0"/>
</radialGradient>
<radialGradient id="paint45_radial_730_247" cx="0" cy="0" r="1" gradientUnits="userSpaceOnUse" gradientTransform="translate(91.5084 44.716) rotate(0.0219069) scale(43.554 0.773429)">
<stop stop-color="white"/>
<stop offset="1" stop-color="white" stop-opacity="0"/>
</radialGradient>
<radialGradient id="paint46_radial_730_247" cx="0" cy="0" r="1" gradientUnits="userSpaceOnUse" gradientTransform="translate(90.9052 40.4157) rotate(0.0223962) scale(42.6024 0.773429)">
<stop stop-color="white"/>
<stop offset="1" stop-color="white" stop-opacity="0"/>
</radialGradient>
<radialGradient id="paint47_radial_730_247" cx="0" cy="0" r="1" gradientUnits="userSpaceOnUse" gradientTransform="translate(90.0236 36.0158) rotate(0.0231521) scale(41.2116 0.773429)">
<stop stop-color="white"/>
<stop offset="1" stop-color="white" stop-opacity="0"/>
</radialGradient>
<radialGradient id="paint48_radial_730_247" cx="0" cy="0" r="1" gradientUnits="userSpaceOnUse" gradientTransform="translate(89.0028 31.6159) rotate(0.0240935) scale(39.6012 0.773429)">
<stop stop-color="white"/>
<stop offset="1" stop-color="white" stop-opacity="0"/>
</radialGradient>
<radialGradient id="paint49_radial_730_247" cx="0" cy="0" r="1" gradientUnits="userSpaceOnUse" gradientTransform="translate(87.8428 27.216) rotate(0.0252609) scale(37.7712 0.773429)">
<stop stop-color="white"/>
<stop offset="1" stop-color="white" stop-opacity="0"/>
</radialGradient>
<radialGradient id="paint50_radial_730_247" cx="0" cy="0" r="1" gradientUnits="userSpaceOnUse" gradientTransform="translate(86.59 22.9157) rotate(0.0266556) scale(35.7948 0.773429)">
<stop stop-color="white"/>
<stop offset="1" stop-color="white" stop-opacity="0"/>
</radialGradient>
<radialGradient id="paint51_radial_730_247" cx="0" cy="0" r="1" gradientUnits="userSpaceOnUse" gradientTransform="translate(84.7804 18.5158) rotate(0.0289658) scale(32.94 0.773429)">
<stop stop-color="white"/>
<stop offset="1" stop-color="white" stop-opacity="0"/>
</radialGradient>
<radialGradient id="paint52_radial_730_247" cx="0" cy="0" r="1" gradientUnits="userSpaceOnUse" gradientTransform="translate(82.6924 14.1159) rotate(0.0321842) scale(29.646 0.773429)">
<stop stop-color="white"/>
<stop offset="1" stop-color="white" stop-opacity="0"/>
</radialGradient>
<radialGradient id="paint53_radial_730_247" cx="0" cy="0" r="1" gradientUnits="userSpaceOnUse" gradientTransform="translate(80.2332 9.71602) rotate(0.0370301) scale(25.7664 0.773429)">
<stop stop-color="white"/>
<stop offset="1" stop-color="white" stop-opacity="0"/>
</radialGradient>
<radialGradient id="paint54_radial_730_247" cx="0" cy="0" r="1" gradientUnits="userSpaceOnUse" gradientTransform="translate(76.7996 5.41572) rotate(0.0468871) scale(20.3496 0.773429)">
<stop stop-color="white"/>
<stop offset="1" stop-color="white" stop-opacity="0"/>
</radialGradient>
<radialGradient id="paint55_radial_730_247" cx="0" cy="0" r="1" gradientUnits="userSpaceOnUse" gradientTransform="translate(71.6492 1.01582) rotate(0.0780515) scale(12.2244 0.773428)">
<stop stop-color="white"/>
<stop offset="1" stop-color="white" stop-opacity="0"/>
</radialGradient>
</defs>
</svg>
